<mxfile host="app.diagrams.net" agent="Mozilla/5.0 (Windows NT 10.0; Win64; x64) AppleWebKit/537.36 (KHTML, like Gecko) Chrome/138.0.0.0 Safari/537.36" version="28.0.7">
  <diagram id="aws-detailed-architecture" name="AWS Detailed Architecture">
    <mxGraphModel dx="2066" dy="1103" grid="1" gridSize="10" guides="1" tooltips="1" connect="1" arrows="1" fold="1" page="1" pageScale="1" pageWidth="1920" pageHeight="1080" math="0" shadow="0">
      <root>
        <mxCell id="0" />
        <mxCell id="1" parent="0" />
        <mxCell id="vpc" value="VPC" style="sketch=0;points=[[0,0,0],[0.25,0,0],[0.5,0,0],[0.75,0,0],[1,0,0],[0,1,0],[0.25,1,0],[0.5,1,0],[0.75,1,0],[1,1,0]];outlineConnect=0;fontColor=#232F3E;fillColor=none;strokeColor=#8C4FFF;dashed=1;verticalLabelPosition=bottom;verticalAlign=top;align=left;html=1;fontSize=14;fontStyle=1;shape=mxgraph.aws4.group;grIcon=mxgraph.aws4.group_vpc;strokeWidth=2;" parent="1" vertex="1">
          <mxGeometry x="450" y="270" width="1180" height="720" as="geometry" />
        </mxCell>
        <mxCell id="subnetB" value="Private Subnet B" style="sketch=0;points=[[0,0,0],[0.25,0,0],[0.5,0,0],[0.75,0,0],[1,0,0],[0,1,0],[0.25,1,0],[0.5,1,0],[0.75,1,0],[1,1,0]];outlineConnect=0;fontColor=#232F3E;fillColor=none;strokeColor=#00A1C9;dashed=0;verticalLabelPosition=bottom;verticalAlign=top;align=left;html=1;fontSize=12;shape=mxgraph.aws4.group;grIcon=mxgraph.aws4.group_private_subnet;strokeWidth=1;" parent="vpc" vertex="1">
          <mxGeometry x="600" y="190" width="560" height="490" as="geometry" />
        </mxCell>
        <mxCell id="s3" value="S3 Bucket&#xa;(Artifacts)" style="sketch=0;points=[[0,0,0],[0.25,0,0],[0.5,0,0],[0.75,0,0],[1,0,0],[0,1,0],[0.25,1,0],[0.5,1,0],[0.75,1,0],[1,1,0],[0,0.25,0],[0,0.5,0],[0,0.75,0],[1,0.25,0],[1,0.5,0],[1,0.75,0]];outlineConnect=0;fontColor=#232F3E;fillColor=#7AA116;strokeColor=#ffffff;dashed=0;verticalLabelPosition=bottom;verticalAlign=top;align=center;html=1;fontSize=12;fontStyle=0;aspect=fixed;shape=mxgraph.aws4.resourceIcon;resIcon=mxgraph.aws4.s3;" parent="subnetB" vertex="1">
          <mxGeometry x="50" y="192.23076923076923" width="60.30769230769231" height="60.30769230769231" as="geometry" />
        </mxCell>
        <mxCell id="ddb" value="DynamoDB&#xa;(Jobs)" style="sketch=0;points=[[0,0,0],[0.25,0,0],[0.5,0,0],[0.75,0,0],[1,0,0],[0,1,0],[0.25,1,0],[0.5,1,0],[0.75,1,0],[1,1,0],[0,0.25,0],[0,0.5,0],[0,0.75,0],[1,0.25,0],[1,0.5,0],[1,0.75,0]];outlineConnect=0;fontColor=#232F3E;fillColor=#3F48CC;strokeColor=#ffffff;dashed=0;verticalLabelPosition=bottom;verticalAlign=top;align=center;html=1;fontSize=12;fontStyle=0;aspect=fixed;shape=mxgraph.aws4.resourceIcon;resIcon=mxgraph.aws4.dynamodb;" parent="subnetB" vertex="1">
          <mxGeometry x="150" y="28.26923076923077" width="60.30769230769231" height="60.30769230769231" as="geometry" />
        </mxCell>
        <mxCell id="sqs" value="SQS&#xa;(jobs.fifo)" style="sketch=0;points=[[0,0,0],[0.25,0,0],[0.5,0,0],[0.75,0,0],[1,0,0],[0,1,0],[0.25,1,0],[0.5,1,0],[0.75,1,0],[1,1,0],[0,0.25,0],[0,0.5,0],[0,0.75,0],[1,0.25,0],[1,0.5,0],[1,0.75,0]];outlineConnect=0;fontColor=#232F3E;fillColor=#FF9900;strokeColor=#ffffff;dashed=0;verticalLabelPosition=bottom;verticalAlign=top;align=center;html=1;fontSize=12;fontStyle=0;aspect=fixed;shape=mxgraph.aws4.resourceIcon;resIcon=mxgraph.aws4.sqs;" parent="subnetB" vertex="1">
          <mxGeometry x="50" y="84.8076923076923" width="60.30769230769231" height="60.30769230769231" as="geometry" />
        </mxCell>
        <mxCell id="sm" value="Secrets&#xa;Manager" style="sketch=0;points=[[0,0,0],[0.25,0,0],[0.5,0,0],[0.75,0,0],[1,0,0],[0,1,0],[0.25,1,0],[0.5,1,0],[0.75,1,0],[1,1,0],[0,0.25,0],[0,0.5,0],[0,0.75,0],[1,0.25,0],[1,0.5,0],[1,0.75,0]];outlineConnect=0;fontColor=#232F3E;fillColor=#DD344C;strokeColor=#ffffff;dashed=0;verticalLabelPosition=bottom;verticalAlign=top;align=center;html=1;fontSize=12;fontStyle=0;aspect=fixed;shape=mxgraph.aws4.resourceIcon;resIcon=mxgraph.aws4.secrets_manager;" parent="subnetB" vertex="1">
          <mxGeometry x="290" y="131.92307692307693" width="60.30769230769231" height="60.30769230769231" as="geometry" />
        </mxCell>
        <mxCell id="ecr" value="ECR&#xa;(Images)" style="sketch=0;points=[[0,0,0],[0.25,0,0],[0.5,0,0],[0.75,0,0],[1,0,0],[0,1,0],[0.25,1,0],[0.5,1,0],[0.75,1,0],[1,1,0],[0,0.25,0],[0,0.5,0],[0,0.75,0],[1,0.25,0],[1,0.5,0],[1,0.75,0]];outlineConnect=0;fontColor=#232F3E;fillColor=#ED7100;strokeColor=#ffffff;dashed=0;verticalLabelPosition=bottom;verticalAlign=top;align=center;html=1;fontSize=12;fontStyle=0;aspect=fixed;shape=mxgraph.aws4.resourceIcon;resIcon=mxgraph.aws4.ecr;" parent="subnetB" vertex="1">
          <mxGeometry x="130" y="320.38461538461536" width="60.30769230769231" height="60.30769230769231" as="geometry" />
        </mxCell>
        <mxCell id="cw" value="CloudWatch&#xa;Logs" style="sketch=0;points=[[0,0,0],[0.25,0,0],[0.5,0,0],[0.75,0,0],[1,0,0],[0,1,0],[0.25,1,0],[0.5,1,0],[0.75,1,0],[1,1,0],[0,0.25,0],[0,0.5,0],[0,0.75,0],[1,0.25,0],[1,0.5,0],[1,0.75,0]];outlineConnect=0;fontColor=#232F3E;fillColor=#759C3E;strokeColor=#ffffff;dashed=0;verticalLabelPosition=bottom;verticalAlign=top;align=center;html=1;fontSize=12;fontStyle=0;aspect=fixed;shape=mxgraph.aws4.resourceIcon;resIcon=mxgraph.aws4.cloudwatch;" parent="subnetB" vertex="1">
          <mxGeometry x="40" y="367.5" width="60.30769230769231" height="60.30769230769231" as="geometry" />
        </mxCell>
        <mxCell id="vpceS3gw" value="VPC Endpoint&#xa;(S3 Gateway)" style="sketch=0;points=[[0,0,0],[0.25,0,0],[0.5,0,0],[0.75,0,0],[1,0,0],[0,1,0],[0.25,1,0],[0.5,1,0],[0.75,1,0],[1,1,0],[0,0.25,0],[0,0.5,0],[0,0.75,0],[1,0.25,0],[1,0.5,0],[1,0.75,0]];outlineConnect=0;fontColor=#232F3E;fillColor=#4286F4;strokeColor=#ffffff;dashed=0;verticalLabelPosition=bottom;verticalAlign=top;align=center;html=1;fontSize=10;fontStyle=0;aspect=fixed;shape=mxgraph.aws4.resourceIcon;resIcon=mxgraph.aws4.vpc_endpoint;" parent="subnetB" vertex="1">
          <mxGeometry x="260" y="235.57692307692307" width="45.230769230769226" height="45.230769230769226" as="geometry" />
        </mxCell>
        <mxCell id="vpceDDBgw" value="VPC Endpoint&#xa;(DDB Gateway)" style="sketch=0;points=[[0,0,0],[0.25,0,0],[0.5,0,0],[0.75,0,0],[1,0,0],[0,1,0],[0.25,1,0],[0.5,1,0],[0.75,1,0],[1,1,0],[0,0.25,0],[0,0.5,0],[0,0.75,0],[1,0.25,0],[1,0.5,0],[1,0.75,0]];outlineConnect=0;fontColor=#232F3E;fillColor=#4286F4;strokeColor=#ffffff;dashed=0;verticalLabelPosition=bottom;verticalAlign=top;align=center;html=1;fontSize=10;fontStyle=0;aspect=fixed;shape=mxgraph.aws4.resourceIcon;resIcon=mxgraph.aws4.vpc_endpoint;" parent="subnetB" vertex="1">
          <mxGeometry x="370" y="235.57692307692307" width="45.230769230769226" height="45.230769230769226" as="geometry" />
        </mxCell>
        <mxCell id="note1" value="Architecture Notes:&#xa;• Private subnets use VPC Endpoints for AWS services&#xa;• Internet egress (GitHub/Anthropic) via NAT Gateway&#xa;• VPC Interface Endpoints for private AWS service access&#xa;• Gateway Endpoints for S3 and DynamoDB optimization" style="shape=note;whiteSpace=wrap;fillColor=#FFFF88;strokeColor=#B29500;fontSize=11;fontColor=#000000;" parent="subnetB" vertex="1">
          <mxGeometry x="214" y="358.0769230769231" width="320" height="113.07692307692308" as="geometry" />
        </mxCell>
        <mxCell id="subnetPub" value="Public Subnet" style="sketch=0;points=[[0,0,0],[0.25,0,0],[0.5,0,0],[0.75,0,0],[1,0,0],[0,1,0],[0.25,1,0],[0.5,1,0],[0.75,1,0],[1,1,0]];outlineConnect=0;fontColor=#232F3E;fillColor=none;strokeColor=#0066CC;dashed=0;verticalLabelPosition=bottom;verticalAlign=top;align=left;html=1;fontSize=12;shape=mxgraph.aws4.group;grIcon=mxgraph.aws4.group_public_subnet;strokeWidth=1;" parent="vpc" vertex="1">
          <mxGeometry x="20" y="20" width="1140" height="120" as="geometry" />
        </mxCell>
        <mxCell id="igw" value="Internet&#xa;Gateway" style="sketch=0;points=[[0,0,0],[0.25,0,0],[0.5,0,0],[0.75,0,0],[1,0,0],[0,1,0],[0.25,1,0],[0.5,1,0],[0.75,1,0],[1,1,0],[0,0.25,0],[0,0.5,0],[0,0.75,0],[1,0.25,0],[1,0.5,0],[1,0.75,0]];outlineConnect=0;fontColor=#232F3E;fillColor=#4286F4;strokeColor=#ffffff;dashed=0;verticalLabelPosition=bottom;verticalAlign=top;align=center;html=1;fontSize=12;fontStyle=0;aspect=fixed;shape=mxgraph.aws4.resourceIcon;resIcon=mxgraph.aws4.internet_gateway;" parent="subnetPub" vertex="1">
          <mxGeometry x="106" y="28" width="64" height="64" as="geometry" />
        </mxCell>
        <mxCell id="natgw" value="NAT&#xa;Gateway" style="sketch=0;points=[[0,0,0],[0.25,0,0],[0.5,0,0],[0.75,0,0],[1,0,0],[0,1,0],[0.25,1,0],[0.5,1,0],[0.75,1,0],[1,1,0],[0,0.25,0],[0,0.5,0],[0,0.75,0],[1,0.25,0],[1,0.5,0],[1,0.75,0]];outlineConnect=0;fontColor=#232F3E;fillColor=#4286F4;strokeColor=#ffffff;dashed=0;verticalLabelPosition=bottom;verticalAlign=top;align=center;html=1;fontSize=12;fontStyle=0;aspect=fixed;shape=mxgraph.aws4.resourceIcon;resIcon=mxgraph.aws4.nat_gateway;" parent="subnetPub" vertex="1">
          <mxGeometry x="280" y="28" width="64" height="64" as="geometry" />
        </mxCell>
        <mxCell id="subnetA" value="Private Subnet A" style="sketch=0;points=[[0,0,0],[0.25,0,0],[0.5,0,0],[0.75,0,0],[1,0,0],[0,1,0],[0.25,1,0],[0.5,1,0],[0.75,1,0],[1,1,0]];outlineConnect=0;fontColor=#232F3E;fillColor=none;strokeColor=#00A1C9;dashed=0;verticalLabelPosition=bottom;verticalAlign=top;align=left;html=1;fontSize=12;shape=mxgraph.aws4.group;grIcon=mxgraph.aws4.group_private_subnet;strokeWidth=1;" parent="vpc" vertex="1">
          <mxGeometry x="20" y="190" width="560" height="490" as="geometry" />
        </mxCell>
        <mxCell id="lambda" value="Backend API&#xa;(Lambda)" style="sketch=0;points=[[0,0,0],[0.25,0,0],[0.5,0,0],[0.75,0,0],[1,0,0],[0,1,0],[0.25,1,0],[0.5,1,0],[0.75,1,0],[1,1,0],[0,0.25,0],[0,0.5,0],[0,0.75,0],[1,0.25,0],[1,0.5,0],[1,0.75,0]];outlineConnect=0;fontColor=#232F3E;fillColor=#FF9900;strokeColor=#ffffff;dashed=0;verticalLabelPosition=bottom;verticalAlign=top;align=center;html=1;fontSize=12;fontStyle=0;aspect=fixed;shape=mxgraph.aws4.resourceIcon;resIcon=mxgraph.aws4.lambda;" parent="subnetA" vertex="1">
          <mxGeometry x="40" y="37.69230769230766" width="60.30769230769231" height="60.30769230769231" as="geometry" />
        </mxCell>
        <mxCell id="ecs" value="ECS Fargate&#xa;(Worker)" style="sketch=0;points=[[0,0,0],[0.25,0,0],[0.5,0,0],[0.75,0,0],[1,0,0],[0,1,0],[0.25,1,0],[0.5,1,0],[0.75,1,0],[1,1,0],[0,0.25,0],[0,0.5,0],[0,0.75,0],[1,0.25,0],[1,0.5,0],[1,0.75,0]];outlineConnect=0;fontColor=#232F3E;fillColor=#ED7100;strokeColor=#ffffff;dashed=0;verticalLabelPosition=bottom;verticalAlign=top;align=center;html=1;fontSize=12;fontStyle=0;aspect=fixed;shape=mxgraph.aws4.resourceIcon;resIcon=mxgraph.aws4.ecs;" parent="subnetA" vertex="1">
          <mxGeometry x="332" y="169.6153846153846" width="60.30769230769231" height="60.30769230769231" as="geometry" />
        </mxCell>
        <mxCell id="vpceSQS" value="VPC Endpoint&#xa;(SQS)" style="sketch=0;points=[[0,0,0],[0.25,0,0],[0.5,0,0],[0.75,0,0],[1,0,0],[0,1,0],[0.25,1,0],[0.5,1,0],[0.75,1,0],[1,1,0],[0,0.25,0],[0,0.5,0],[0,0.75,0],[1,0.25,0],[1,0.5,0],[1,0.75,0]];outlineConnect=0;fontColor=#232F3E;fillColor=#4286F4;strokeColor=#ffffff;dashed=0;verticalLabelPosition=bottom;verticalAlign=top;align=center;html=1;fontSize=10;fontStyle=0;aspect=fixed;shape=mxgraph.aws4.resourceIcon;resIcon=mxgraph.aws4.vpc_endpoints;" parent="subnetA" vertex="1">
          <mxGeometry x="40" y="301.53846153846155" width="45.230769230769226" height="45.230769230769226" as="geometry" />
        </mxCell>
        <mxCell id="vpceSM" value="VPC Endpoint&#xa;(Secrets Mgr)" style="sketch=0;points=[[0,0,0],[0.25,0,0],[0.5,0,0],[0.75,0,0],[1,0,0],[0,1,0],[0.25,1,0],[0.5,1,0],[0.75,1,0],[1,1,0],[0,0.25,0],[0,0.5,0],[0,0.75,0],[1,0.25,0],[1,0.5,0],[1,0.75,0]];outlineConnect=0;fontColor=#232F3E;fillColor=#4286F4;strokeColor=#ffffff;dashed=0;verticalLabelPosition=bottom;verticalAlign=top;align=center;html=1;fontSize=10;fontStyle=0;aspect=fixed;shape=mxgraph.aws4.resourceIcon;resIcon=mxgraph.aws4.vpc_endpoints;" parent="subnetA" vertex="1">
          <mxGeometry x="140" y="301.53846153846155" width="45.230769230769226" height="45.230769230769226" as="geometry" />
        </mxCell>
        <mxCell id="vpceECRAPI" value="VPC Endpoint&#xa;(ECR API)" style="sketch=0;points=[[0,0,0],[0.25,0,0],[0.5,0,0],[0.75,0,0],[1,0,0],[0,1,0],[0.25,1,0],[0.5,1,0],[0.75,1,0],[1,1,0],[0,0.25,0],[0,0.5,0],[0,0.75,0],[1,0.25,0],[1,0.5,0],[1,0.75,0]];outlineConnect=0;fontColor=#232F3E;fillColor=#4286F4;strokeColor=#ffffff;dashed=0;verticalLabelPosition=bottom;verticalAlign=top;align=center;html=1;fontSize=10;fontStyle=0;aspect=fixed;shape=mxgraph.aws4.resourceIcon;resIcon=mxgraph.aws4.vpc_endpoints;" parent="subnetA" vertex="1">
          <mxGeometry x="240" y="301.53846153846155" width="45.230769230769226" height="45.230769230769226" as="geometry" />
        </mxCell>
        <mxCell id="vpceECRDKR" value="VPC Endpoint&#xa;(ECR DKR)" style="sketch=0;points=[[0,0,0],[0.25,0,0],[0.5,0,0],[0.75,0,0],[1,0,0],[0,1,0],[0.25,1,0],[0.5,1,0],[0.75,1,0],[1,1,0],[0,0.25,0],[0,0.5,0],[0,0.75,0],[1,0.25,0],[1,0.5,0],[1,0.75,0]];outlineConnect=0;fontColor=#232F3E;fillColor=#4286F4;strokeColor=#ffffff;dashed=0;verticalLabelPosition=bottom;verticalAlign=top;align=center;html=1;fontSize=10;fontStyle=0;aspect=fixed;shape=mxgraph.aws4.resourceIcon;resIcon=mxgraph.aws4.vpc_endpoints;" parent="subnetA" vertex="1">
          <mxGeometry x="340" y="301.53846153846155" width="45.230769230769226" height="45.230769230769226" as="geometry" />
        </mxCell>
        <mxCell id="vpceLogs" value="VPC Endpoint&#xa;(CloudWatch)" style="sketch=0;points=[[0,0,0],[0.25,0,0],[0.5,0,0],[0.75,0,0],[1,0,0],[0,1,0],[0.25,1,0],[0.5,1,0],[0.75,1,0],[1,1,0],[0,0.25,0],[0,0.5,0],[0,0.75,0],[1,0.25,0],[1,0.5,0],[1,0.75,0]];outlineConnect=0;fontColor=#232F3E;fillColor=#4286F4;strokeColor=#ffffff;dashed=0;verticalLabelPosition=bottom;verticalAlign=top;align=center;html=1;fontSize=10;fontStyle=0;aspect=fixed;shape=mxgraph.aws4.resourceIcon;resIcon=mxgraph.aws4.vpc_endpoints;" parent="subnetA" vertex="1">
          <mxGeometry x="440" y="301.53846153846155" width="45.230769230769226" height="45.230769230769226" as="geometry" />
        </mxCell>
        <mxCell id="fe" value="Frontend&#xa;(Web/App)" style="sketch=0;points=[[0,0,0],[0.25,0,0],[0.5,0,0],[0.75,0,0],[1,0,0],[0,1,0],[0.25,1,0],[0.5,1,0],[0.75,1,0],[1,1,0],[0,0.25,0],[0,0.5,0],[0,0.75,0],[1,0.25,0],[1,0.5,0],[1,0.75,0]];outlineConnect=0;fontColor=#232F3E;fillColor=#ED7100;strokeColor=#ffffff;dashed=0;verticalLabelPosition=bottom;verticalAlign=top;align=center;html=1;fontSize=12;fontStyle=0;aspect=fixed;shape=mxgraph.aws4.resourceIcon;resIcon=mxgraph.aws4.cloudfront;" parent="1" vertex="1">
          <mxGeometry x="70" y="488.8461538461538" width="78" height="78" as="geometry" />
        </mxCell>
        <mxCell id="apigw" value="API Gateway&#xa;(HTTP API)" style="sketch=0;points=[[0,0,0],[0.25,0,0],[0.5,0,0],[0.75,0,0],[1,0,0],[0,1,0],[0.25,1,0],[0.5,1,0],[0.75,1,0],[1,1,0],[0,0.25,0],[0,0.5,0],[0,0.75,0],[1,0.25,0],[1,0.5,0],[1,0.75,0]];outlineConnect=0;fontColor=#232F3E;fillColor=#FF9900;strokeColor=#ffffff;dashed=0;verticalLabelPosition=bottom;verticalAlign=top;align=center;html=1;fontSize=12;fontStyle=0;aspect=fixed;shape=mxgraph.aws4.resourceIcon;resIcon=mxgraph.aws4.api_gateway;" parent="1" vertex="1">
          <mxGeometry x="240" y="488.8461538461538" width="78" height="78" as="geometry" />
        </mxCell>
        <mxCell id="github" value="GitHub&#xa;Repository" style="sketch=0;points=[[0,0,0],[0.25,0,0],[0.5,0,0],[0.75,0,0],[1,0,0],[0,1,0],[0.25,1,0],[0.5,1,0],[0.75,1,0],[1,1,0],[0,0.25,0],[0,0.5,0],[0,0.75,0],[1,0.25,0],[1,0.5,0],[1,0.75,0]];outlineConnect=0;fontColor=#232F3E;fillColor=#759C3E;strokeColor=#ffffff;dashed=0;verticalLabelPosition=bottom;verticalAlign=top;align=center;html=1;fontSize=12;fontStyle=0;aspect=fixed;shape=mxgraph.aws4.resourceIcon;resIcon=mxgraph.aws4.git_repository;" parent="1" vertex="1">
          <mxGeometry x="810" y="110" width="78" height="78" as="geometry" />
        </mxCell>
        <mxCell id="ghapp" value="GitHub App&#xa;Auth" style="sketch=0;points=[[0,0,0],[0.25,0,0],[0.5,0,0],[0.75,0,0],[1,0,0],[0,1,0],[0.25,1,0],[0.5,1,0],[0.75,1,0],[1,1,0],[0,0.25,0],[0,0.5,0],[0,0.75,0],[1,0.25,0],[1,0.5,0],[1,0.75,0]];outlineConnect=0;fontColor=#232F3E;fillColor=#DD344C;strokeColor=#ffffff;dashed=0;verticalLabelPosition=bottom;verticalAlign=top;align=center;html=1;fontSize=12;fontStyle=0;aspect=fixed;shape=mxgraph.aws4.resourceIcon;resIcon=mxgraph.aws4.iam_identity_center;" parent="1" vertex="1">
          <mxGeometry x="640" y="110" width="78" height="78" as="geometry" />
        </mxCell>
        <mxCell id="anthropic" value="Claude Code&#xa;SDK" style="sketch=0;points=[[0,0,0],[0.25,0,0],[0.5,0,0],[0.75,0,0],[1,0,0],[0,1,0],[0.25,1,0],[0.5,1,0],[0.75,1,0],[1,1,0],[0,0.25,0],[0,0.5,0],[0,0.75,0],[1,0.25,0],[1,0.5,0],[1,0.75,0]];outlineConnect=0;fontColor=#232F3E;fillColor=#8C4FFF;strokeColor=#ffffff;dashed=0;verticalLabelPosition=bottom;verticalAlign=top;align=center;html=1;fontSize=12;fontStyle=0;aspect=fixed;shape=mxgraph.aws4.resourceIcon;resIcon=mxgraph.aws4.bedrock;" parent="1" vertex="1">
          <mxGeometry x="503" y="110" width="78" height="78" as="geometry" />
        </mxCell>
        <mxCell id="ci" value="GitHub&#xa;Actions" style="sketch=0;points=[[0,0,0],[0.25,0,0],[0.5,0,0],[0.75,0,0],[1,0,0],[0,1,0],[0.25,1,0],[0.5,1,0],[0.75,1,0],[1,1,0],[0,0.25,0],[0,0.5,0],[0,0.75,0],[1,0.25,0],[1,0.5,0],[1,0.75,0]];outlineConnect=0;fontColor=#232F3E;fillColor=#AD7A33;strokeColor=#ffffff;dashed=0;verticalLabelPosition=bottom;verticalAlign=top;align=center;html=1;fontSize=12;fontStyle=0;aspect=fixed;shape=mxgraph.aws4.resourceIcon;resIcon=mxgraph.aws4.codebuild;" parent="1" vertex="1">
          <mxGeometry x="1020" y="110" width="78" height="78" as="geometry" />
        </mxCell>
        <mxCell id="callback" value="Callback URL&#xa;(optional)" style="sketch=0;points=[[0,0,0],[0.25,0,0],[0.5,0,0],[0.75,0,0],[1,0,0],[0,1,0],[0.25,1,0],[0.5,1,0],[0.75,1,0],[1,1,0],[0,0.25,0],[0,0.5,0],[0,0.75,0],[1,0.25,0],[1,0.5,0],[1,0.75,0]];outlineConnect=0;fontColor=#232F3E;fillColor=#FF9900;strokeColor=#ffffff;dashed=0;verticalLabelPosition=bottom;verticalAlign=top;align=center;html=1;fontSize=12;fontStyle=0;aspect=fixed;shape=mxgraph.aws4.resourceIcon;resIcon=mxgraph.aws4.eventbridge;" parent="1" vertex="1">
          <mxGeometry x="240" y="690" width="78" height="78" as="geometry" />
        </mxCell>
        <mxCell id="edge1" style="strokeColor=#FF9900;strokeWidth=2;endArrow=classic;endFill=1;" parent="1" source="fe" target="apigw" edge="1">
          <mxGeometry relative="1" as="geometry" />
        </mxCell>
        <mxCell id="edge2" style="strokeColor=#FF9900;strokeWidth=2;endArrow=classic;endFill=1;" parent="1" source="apigw" target="lambda" edge="1">
          <mxGeometry relative="1" as="geometry" />
        </mxCell>
        <mxCell id="edge3" style="strokeColor=#FF9900;strokeWidth=2;endArrow=classic;endFill=1;" parent="1" source="lambda" target="sqs" edge="1">
          <mxGeometry relative="1" as="geometry" />
        </mxCell>
        <mxCell id="edge4" style="strokeColor=#3F48CC;strokeWidth=2;endArrow=classic;endFill=1;" parent="1" source="lambda" target="ddb" edge="1">
          <mxGeometry relative="1" as="geometry" />
        </mxCell>
        <mxCell id="edge5" style="strokeColor=#ED7100;strokeWidth=2;endArrow=classic;endFill=1;" parent="1" source="sqs" target="ecs" edge="1">
          <mxGeometry relative="1" as="geometry" />
        </mxCell>
        <mxCell id="edge6" style="strokeColor=#DD344C;strokeWidth=2;endArrow=classic;endFill=1;" parent="1" source="ecs" target="sm" edge="1">
          <mxGeometry relative="1" as="geometry" />
        </mxCell>
        <mxCell id="edge7" style="strokeColor=#7AA116;strokeWidth=2;endArrow=classic;endFill=1;" parent="1" source="ecs" target="s3" edge="1">
          <mxGeometry relative="1" as="geometry" />
        </mxCell>
        <mxCell id="edge8" style="strokeColor=#ED7100;strokeWidth=2;endArrow=classic;endFill=1;" parent="1" source="ecs" target="ecr" edge="1">
          <mxGeometry relative="1" as="geometry" />
        </mxCell>
        <mxCell id="edge9" style="strokeColor=#759C3E;strokeWidth=2;endArrow=classic;endFill=1;" parent="1" source="ecs" target="cw" edge="1">
          <mxGeometry relative="1" as="geometry" />
        </mxCell>
        <mxCell id="edgeNat1" style="dashed=1;strokeColor=#4286F4;strokeWidth=2;endArrow=classic;endFill=1;" parent="1" source="ecs" target="natgw" edge="1">
          <mxGeometry relative="1" as="geometry" />
        </mxCell>
        <mxCell id="edgeNat2" style="dashed=1;strokeColor=#4286F4;strokeWidth=2;endArrow=classic;endFill=1;" parent="1" source="lambda" target="natgw" edge="1">
          <mxGeometry relative="1" as="geometry" />
        </mxCell>
        <mxCell id="edgeNat3" style="dashed=1;strokeColor=#4286F4;strokeWidth=2;endArrow=classic;endFill=1;" parent="1" source="natgw" target="igw" edge="1">
          <mxGeometry relative="1" as="geometry" />
        </mxCell>
        <mxCell id="edgeGit" style="dashed=1;strokeColor=#759C3E;strokeWidth=2;endArrow=classic;endFill=1;" parent="1" source="igw" target="github" edge="1">
          <mxGeometry relative="1" as="geometry" />
        </mxCell>
        <mxCell id="edgeGhApp" style="dashed=1;strokeColor=#DD344C;strokeWidth=2;endArrow=classic;endFill=1;" parent="1" source="igw" target="ghapp" edge="1">
          <mxGeometry relative="1" as="geometry" />
        </mxCell>
        <mxCell id="edgeAnth" style="dashed=1;strokeColor=#8C4FFF;strokeWidth=2;endArrow=classic;endFill=1;" parent="1" source="igw" target="anthropic" edge="1">
          <mxGeometry relative="1" as="geometry" />
        </mxCell>
        <mxCell id="edgeCI" style="strokeColor=#AD7A33;strokeWidth=2;endArrow=classic;endFill=1;" parent="1" source="github" target="ci" edge="1">
          <mxGeometry relative="1" as="geometry" />
        </mxCell>
        <mxCell id="edgeCB" style="dashed=1;strokeColor=#FF9900;strokeWidth=2;endArrow=classic;endFill=1;" parent="1" source="lambda" target="callback" edge="1">
          <mxGeometry relative="1" as="geometry" />
        </mxCell>
      </root>
    </mxGraphModel>
  </diagram>
</mxfile>
